<?xml version="1.0" encoding="UTF-8"?>
<svg id="svg12" class="icon icon-tabler icon-tabler-box" width="24" height="24" fill="none" stroke="currentColor" stroke-linecap="round" stroke-linejoin="round" stroke-width="2" version="1.1" viewBox="0 0 24 24" xmlns="http://www.w3.org/2000/svg">
 <path id="path2" d="M0 0h24v24H0z" fill="none" stroke="none"/>
 <path id="polyline4" d="m12.145 2.1771 9.7678 2.8304v12.653m-3.0524 1.8845-6.7153 1.9459-9.7678-2.8304v-13.653l1.7773-0.51501m3.6755-1.0651 4.3149-1.2503"/>
 <path id="line6" d="m12.145 7.838 9.7678-2.8304"/>
 <path id="line8" d="m12.145 12.356v9.1347"/>
 <path id="line10" d="m12.145 7.838-0.23642-0.068509m-6.1653-1.7865-3.366-0.97539"/>
 <path id="path835" d="m15.536 15.562 0.33579 1.528 0.21021-0.93088m0.79906-3.5386 0.3927-1.739 0.74417 2.9191m0.87578 0.90604 1.123-5.6096"/>
 <path id="path1123" d="m8.7541 10.862c-0.29786-0.40868-0.71012-0.74059-1.1662-0.89888l-0.8258-0.28661c-2.2017-0.7635-2.213 2.6067-0.011305 3.3702l0.8258 0.2866c2.2021 0.76428 2.1908 4.1345-0.011305 3.3702l-0.8258-0.2866c-0.45608-0.15829-0.86834-0.4902-1.1662-0.89888"/>
 <path id="path6" d="m3 3 18 18"/>
</svg>
