<?xml version="1.0" encoding="UTF-8"?>
<svg id="svg12" class="icon icon-tabler icon-tabler-box" width="24" height="24" fill="none" stroke="currentColor" stroke-linecap="round" stroke-linejoin="round" stroke-width="2" version="1.1" viewBox="0 0 24 24" xmlns="http://www.w3.org/2000/svg">
 <path id="path2" d="M0 0h24v24H0z" fill="none" stroke="none"/>
 <path id="polyline4" d="m12.145 2.1771 9.7678 2.8304v10.153m-6.1049 5.269c-1.221 0.3538-2.442 0.7076-3.6629 1.0614l-9.7678-2.8304v-13.653l9.7678-2.8304"/>
 <path id="line6" d="m12.145 7.838 9.7678-2.8304"/>
 <path id="line8" d="m12.145 7.838v13.653"/>
 <path id="line10" d="m12.145 7.838-9.7678-2.8304"/>
 <path id="path835" d="m14.54 11.031 0.6658 3.0298m1.7173-1.6265 0.3505-1.5521 0.16704 0.65522m2.2243-0.68315 0.35168-1.7566"/>
 <path id="path1123" d="m8.7541 10.862c-0.29786-0.40868-0.71012-0.74059-1.1662-0.89888l-0.8258-0.28661c-2.2017-0.7635-2.213 2.6067-0.011305 3.3702l0.8258 0.2866c2.2021 0.76428 2.1908 4.1345-0.011305 3.3702l-0.8258-0.2866c-0.45608-0.15829-0.86834-0.4902-1.1662-0.89888"/>
 <path id="path247" d="m19 14-2 4h4l-2 4"/>
</svg>
