<?xml version="1.0" encoding="UTF-8"?>
<svg id="svg322" class="icon icon-tabler icon-tabler-brand-asana" width="24" height="24" stroke="currentColor" stroke-linecap="round" stroke-linejoin="round" stroke-width="2" version="1.1" viewBox="0 0 24 24" xmlns="http://www.w3.org/2000/svg">
 <path id="path314" d="M0 0h24v24H0z" fill="none" stroke="none"/>
 <path id="path2" d="m10.176 2.8586 3.9955-2e-3c0.90524 1.532 1.6684 3.1466 2.3192 4.8032 0.26035 0.61548 0.52335 1.231 0.73455 1.8657 0.31614 0.92987 0.71463 1.8291 1.0168 2.7643 0.59375 1.9683 1.1184 3.9573 1.6458 5.9443 0.19659 0.79132 0.46889 1.5607 0.64622 2.3567-0.27961 0.09125-0.56054 0.17918-0.83949 0.2731-0.31348 0.09991-0.64622 0.08992-0.97099 0.1179-0.4649 0.04529-0.9318 0.07461-1.3974 0.11457l-1.1211-0.77534c-0.05116-0.3577-0.04317-0.72338-0.11024-1.0797-0.19061-1.1424-0.48948-2.2641-0.82953-3.3705l-6.2337 0.86792c-0.046497 0.25112-0.094974 0.50291-0.14213 0.75469-0.20854 0.89257-0.15608 1.8171-0.21187 2.7263l-1.4239 0.88125c-0.091649 0.0706-0.2112 0.03199-0.31547 0.03064-0.352-0.0353-0.70599-0.03398-1.0567-0.07661-0.35732-0.04462-0.73987 0.0193-1.0739-0.1432-0.27961-0.13056-0.56785-0.24246-0.84414-0.38035 0.31813-1.5167 0.74119-3.0094 1.1536-4.5028 0.5094-1.8631 1.1191-3.6968 1.7467-5.5226 0.87934-2.6391 1.9964-5.1982 3.3121-7.6475m1.7314 5.3774c-0.5187 1.5094-1.1191 2.9881-1.6743 4.4842l3.3155-1.8318c-0.32278-0.90256-0.64821-1.8038-0.98959-2.699-0.06508-0.1512-0.13017-0.34637-0.3095-0.389-0.21319 0.025312-0.27562 0.26577-0.34204 0.43563z" fill="none" stroke-width="2"/>
</svg>
