<?xml version="1.0" encoding="UTF-8"?>
<svg id="svg12" class="icon icon-tabler icon-tabler-box" width="24" height="24" fill="none" stroke="currentColor" stroke-linecap="round" stroke-linejoin="round" stroke-width="2" version="1.1" viewBox="0 0 24 24" xmlns="http://www.w3.org/2000/svg">
 <path id="path2" d="M0 0h24v24H0z" fill="none" stroke="none"/>
 <path id="polyline4" d="m12.145 2.1771 9.7678 2.8304 2e-4 7.4925m-9.768 8.9909-9.7678-2.8304v-13.653l9.7678-2.8304"/>
 <path id="line6" d="m12.145 7.838 9.7678-2.8304"/>
 <path id="line8" d="m12.145 7.838v6.153"/>
 <path id="line10" d="m12.145 7.838-9.7678-2.8304"/>
 <path id="path835" d="m14.54 11.031 0.24842 1.1305m2.3684-0.76193 0.11682-0.51734 0.09779 0.38359m2.1704 0.20357 0.47482-2.3717"/>
 <path id="path1123" d="m8.7541 10.862c-0.29786-0.40868-0.71012-0.74059-1.1662-0.89888l-0.8258-0.28661c-2.2017-0.7635-2.213 2.6067-0.011305 3.3702l0.8258 0.2866c2.2021 0.76428 2.1908 4.1345-0.011305 3.3702l-0.8258-0.2866c-0.45608-0.15829-0.86834-0.4902-1.1662-0.89888"/>
 <path id="path189" d="m18 13c-2.7359 0-5 2.1008-5 4.7222 0 1.1054 0.43984 2.1019 1.1111 2.9036v1.263c0 0.60707 0.50404 1.1111 1.1111 1.1111h1.1111v-2.2222c0-0.30682 0.24873-0.55556 0.55556-0.55556s0.55556 0.24873 0.55556 0.55556v2.2222h1.1111v-2.2222c0-0.30682 0.24873-0.55556 0.55556-0.55556 0.30682 0 0.55556 0.24873 0.55556 0.55556v2.2222h1.1111c0.60707 0 1.1111-0.50404 1.1111-1.1111l0.0012-1.2641c0.67054-0.80205 1.11-1.7977 1.11-2.9026 0-2.6214-2.2641-4.7222-5-4.7222zm-1.6591 3.3192c0.60707 0 1.1111 0.50405 1.1111 1.1111 0 0.60707-0.50404 1.1111-1.1111 1.1111-0.60707 0-1.1111-0.50404-1.1111-1.1111 0-0.60706 0.50404-1.1111 1.1111-1.1111zm3.3257 0.01411c0.60707 0 1.1111 0.50404 1.1111 1.1111s-0.50404 1.1111-1.1111 1.1111c-0.60707 0-1.1111-0.50404-1.1111-1.1111s0.50404-1.1111 1.1111-1.1111z" color="#000000" fill="#000" stroke="none" style="-inkscape-stroke:none"/>
</svg>
