<?xml version="1.0" encoding="UTF-8"?>
<svg class="icon icon-tabler icon-tabler-clear-all" width="24" height="24" fill="none" stroke="currentColor" stroke-linecap="round" stroke-linejoin="round" stroke-width="2" version="1.1" viewBox="0 0 24 24" xml:space="preserve" xmlns="http://www.w3.org/2000/svg"><path d="M0 0h24v24H0z" fill="none" stroke="none"/><path d="m13.561 8.7597 1.0995-2.1631c0.60471-1.1897 1.5645-2.6622 1.6459-2.7834 0.35052-0.52189 0.92581-0.81495 1.5901-0.81003 0.79257 0.0056 1.4214 0.43386 1.7666 1.2024 0.16157 0.35966 0.1915 0.96698 0.06613 1.3422-0.04765 0.14276-0.99996 1.6669-1.6292 2.8981l-1.1441 2.2386"/><path d="m16.955 10.684 0.16075 0.3261c0.24324 0.49344 0.3186 0.85207 0.31336 1.4913-0.0048 0.63164-0.01474 0.66724-0.63318 2.3577-0.69117 1.8893-1.1648 2.9527-1.8785 4.218-0.76848 1.3623-1.0239 1.6848-1.4686 1.8544-0.34336 0.13092-0.60718 0.11766-1.1093-0.05576l1.6e-5 4e-5c-1.983-0.68482-4.483-2.1961-6.5607-3.9661-0.71131-0.60594-1.4272-1.3396-1.528-1.566-0.15244-0.34218-0.088644-0.77202 0.15818-1.0659 0.21104-0.25127 0.38442-0.34114 0.84807-0.43962 1.3014-0.2764 2.663-0.962 3.623-1.8244 0.38186-0.343 1.0813-1.067 1.8357-1.9003 0.77736-0.85859 1.4946-1.2385 2.5013-1.3249l0.34301-0.029438c1.2607 0.12326 2.4772 0.42397 3.3948 1.9247z"/><path d="m10.259 10.613 6.5372 4.2467"/><path d="m6.688 17.647c0.85786-0.48338 1.2335-0.65668 1.6819-1.2771"/><path d="m9.9559 19.795c0.85786-0.48338 1.6021-1.1854 2.0506-1.8058"/></svg>
