<?xml version="1.0" encoding="UTF-8"?>
<svg class="icon icon-tabler icon-tabler-copy" width="24" height="24" fill="none" stroke="currentColor" stroke-linecap="round" stroke-linejoin="round" stroke-width="2" version="1.1" viewBox="0 0 24 24" xmlns="http://www.w3.org/2000/svg">
 <path d="M0 0h24v24H0z" fill="none" stroke="none"/>
 <path d="m12.5 20h-2.5c-1.1046 0-2-0.89543-2-2v-8c0-1.1046 0.89543-2 2-2h8c1.1046 0 2 0.89543 2 2v2.5"/>
 <path d="m16 8v-2a2 2 0 0 0-2-2h-8a2 2 0 0 0-2 2v8a2 2 0 0 0 2 2h2"/>
 <path d="m19 19m-3 0a3 3 0 1 0 6 0 3 3 0 1 0-6 0"/>
 <path d="m17 21 4-4"/>
</svg>
