<?xml version="1.0" encoding="UTF-8"?>
<svg class="icon icon-tabler icon-tabler-square" width="24" height="24" fill="none" stroke="currentColor" stroke-linecap="round" stroke-linejoin="round" stroke-width="2" version="1.1" viewBox="0 0 24 24" xmlns="http://www.w3.org/2000/svg">
 <path d="M0 0h24v24H0z" fill="none" stroke="none"/>
 <path d="m20 20h-16v-16h16z"/>
 <path d="m12 20v-4h8"/>
 <path d="m7.4755 10.5h3.3924"/>
 <path d="m10.868 13v-4.3038c0-0.93679-0.75942-1.6962-1.6962-1.6962-0.93679 0-1.6962 0.75942-1.6962 1.6962v4.3038"/>
 <path d="m13.525 7.5a0.5 0.5 0 0 1 0.5-0.5h1a1.5 1.5 0 0 1 0 3h-0.5 0.5a1.5 1.5 0 0 1 0 3h-1a0.5 0.5 0 0 1-0.5-0.5"/>
</svg>
