<?xml version="1.0" encoding="UTF-8"?>
<svg id="svg6" class="icon icon-tabler icon-tabler-circle" width="24" height="24" fill="none" stroke="currentColor" stroke-linecap="round" stroke-linejoin="round" stroke-width="2" version="1.1" viewBox="0 0 24 24" xmlns="http://www.w3.org/2000/svg">
 <path id="path2" d="M0 0h24v24H0z" fill="none" stroke="none"/>
 <path id="circle293" d="m13.36 3.5686c-1.9387 1.9892-0.57611 3.0522-3.6803 6.1114-3.1041 3.0592-3.7434 1.5609-6.1114 3.6803-1.9043 1.9043-1.8651 5.0309 0.087543 6.9835 1.9526 1.9526 5.0793 1.9918 6.9835 0.08754 2.1193-2.368 0.62099-3.0073 3.6803-6.1114 3.0593-3.1041 4.1222-1.7415 6.1114-3.6803 1.9043-1.9043 1.8651-5.0309-0.08754-6.9835-1.9526-1.9526-5.0793-1.9918-6.9835-0.087542z"/>
 <path id="circle411" d="m7.7574 16.243a1 1 0 0 1 0 1.4142 1 1 0 0 1-1.4142 0 1 1 0 0 1 0-1.4142 1 1 0 0 1 1.4142 0z" fill="currentColor"/>
 <path id="circle560" d="m17.657 6.3431a1 1 0 0 1 0 1.4142 1 1 0 0 1-1.4142 0 1 1 0 0 1 0-1.4142 1 1 0 0 1 1.4142 0z" fill="currentColor"/>
</svg>
