<?xml version="1.0" encoding="UTF-8"?>
<svg id="svg6" class="icon icon-tabler icon-tabler-circle" width="24" height="24" fill="none" stroke="currentColor" stroke-linecap="round" stroke-linejoin="round" stroke-width="2" version="1.1" viewBox="0 0 24 24" xmlns="http://www.w3.org/2000/svg">
 <path id="path2" d="M0 0h24v24H0z" stroke="none" fill="none"/>
 <path id="path600" d="m13.949 7.3956 5.1e-4 -4.1819a9 9 0 0 1 7.0502 8.7862 9 9 0 0 1-9 9 9 9 0 0 1-9-9 9 9 0 0 1 7.049-8.786m-0.0013 4.1829 0.0013-4.1829m-1.8e-5 0-0.0013 4.1829m3.9016-0.00125c1.8493 0.78291 3.0507 2.5962 3.0507 4.6044 0 2.7614-2.2386 5-5 5s-5-2.2386-5-5c0-2.007 1.2-3.8195 3.0477-4.6031"/>
</svg>
