<?xml version="1.0" encoding="UTF-8"?>
<svg id="svg6" class="icon icon-tabler icon-tabler-circle" width="24" height="24" fill="none" stroke="currentColor" stroke-linecap="round" stroke-linejoin="round" stroke-width="2" version="1.1" viewBox="0 0 24 24" xml:space="preserve" xmlns="http://www.w3.org/2000/svg"><path id="path2" d="M0 0h24v24H0z" fill="none" stroke="none"/><path id="path528" d="m7.4672 12.359 4.1733-0.33422c0.77403-0.06199 1.2389-0.14471 1.4915-0.61719 0.25371-0.47448 0.7179-1.5977 1.2471-2.1269 0.5292-0.5292 1.5542-0.71149 2.1614-0.89133 0.60714-0.17984 0.66925-0.5071 0.81227-1.0195l0.81691-2.9268m-14.035 14.485c1.5131 1.5131 3.9663 1.5131 5.4794 1e-6 1.5131-1.5131 1.5131-3.9663-1e-6 -5.4794-1.5131-1.5131-3.9663-1.5131-5.4794-1e-6 -1.5131 1.5131-1.5131 3.9663 2e-6 5.4794zm5.4794 1e-6 11.379-11.392"/></svg>
