<?xml version="1.0" encoding="UTF-8"?>
<svg class="icon icon-tabler icon-tabler-circle" width="24" height="24" fill="none" stroke="currentColor" stroke-linecap="round" stroke-linejoin="round" stroke-width="2" version="1.1" viewBox="0 0 24 24" xml:space="preserve" xmlns="http://www.w3.org/2000/svg"><path d="M0 0h24v24H0z" fill="none" stroke="none"/><path d="m6.2705 20.307 0.82568-4.7861h9.808l0.82588 4.7861z"/><path d="m6.3431 17.35c-1.4477-1.4477-2.3431-3.4477-2.3431-5.6569 3e-7 -4.4183 3.5817-8 8-8 4.4183-3e-7 8 3.5817 8 8 0 2.2091-0.89543 4.2091-2.3431 5.6569"/><path d="m8.6554 15.037c-0.85596-0.85596-1.3854-2.0385-1.3854-3.3446 2e-7 -2.6123 2.1177-4.73 4.73-4.73 2.6123-2e-7 4.73 2.1177 4.73 4.73 0 1.3062-0.52942 2.4887-1.3854 3.3446"/></svg>
