<?xml version="1.0" encoding="UTF-8"?>
<svg id="svg6" class="icon icon-tabler icon-tabler-circle" width="24" height="24" fill="none" stroke="currentColor" stroke-linecap="round" stroke-linejoin="round" stroke-width="2" version="1.1" viewBox="0 0 24 24" xmlns="http://www.w3.org/2000/svg">
 <path id="path2" d="M0 0h24v24H0z" fill="none" stroke="none"/>
 <path id="path392" d="m9.332 2.1172c-4.5761 1.0163-7.332 5.0755-7.332 9.7637 0 5.5235 4.4772 10.002 10 10.002 5.5228 0 10-4.4784 10-10.002 6e-6 -4.6881-2.7559-8.7474-7.332-9.7637-1.7149 1.3656-1.1 4.6878 0.003906 5.5605 0.82339 0.33904 1.5594-0.6274 2.7793-0.56641 0.97613 0.64336 1.2701 2.474 1.2617 3.916 0 3.7059-3.0055 6.709-6.7129 6.709-3.7074 0-6.7129-3.0031-6.7129-6.709-0.0083731-1.442 0.28559-3.2727 1.2617-3.916 1.2198-0.060992 1.9559 0.90545 2.7793 0.56641 1.1039-0.87277 1.7188-4.1949 0.0039062-5.5605z"/>
 <line id="line415" x1="16" x2="16" y1="5" y2="5.01"/>
 <line id="line553" x1="8" x2="8" y1="5" y2="5.01"/>
</svg>
