<?xml version="1.0" encoding="UTF-8"?>
<svg id="svg6" class="icon icon-tabler icon-tabler-circle" width="24" height="24" fill="none" stroke="currentColor" stroke-linecap="round" stroke-linejoin="round" stroke-width="2" version="1.1" viewBox="0 0 24 24" xmlns="http://www.w3.org/2000/svg">
 <path id="path2" d="M0 0h24v24H0z" fill="none" stroke="none"/>
 <path id="circle293" d="m13.768 4.5754c-1.5909 1.6313-0.79495 3.3415-3.3409 5.8515-2.5459 2.51-3.9115 1.5998-5.8515 3.3409-1.5621 1.5621-1.5621 4.0948 0 5.6569s4.0948 1.5621 5.6569 0c1.741-1.94 0.83085-3.3056 3.3409-5.8515s4.2202-1.75 5.8515-3.3409c1.5621-1.5621 1.5621-4.0948 0-5.6569s-4.0948-1.5621-5.6569 0z"/>
 <path id="circle411" transform="rotate(-45)" d="m-6.0834 16.971a0.5 0.5 0 0 1-0.5 0.5 0.5 0.5 0 0 1-0.5-0.5 0.5 0.5 0 0 1 0.5-0.5 0.5 0.5 0 0 1 0.5 0.5z" fill="currentColor"/>
 <path id="circle560" transform="rotate(-45)" d="m7 16.971a0.5 0.5 0 0 1-0.5 0.5 0.5 0.5 0 0 1-0.5-0.5 0.5 0.5 0 0 1 0.5-0.5 0.5 0.5 0 0 1 0.5 0.5z" fill="currentColor"/>
</svg>
