<?xml version="1.0" encoding="UTF-8"?>
<svg id="svg6" class="icon icon-tabler icon-tabler-circle" width="24" height="24" fill="none" stroke="currentColor" stroke-linecap="round" stroke-linejoin="round" stroke-width="2" version="1.1" viewBox="0 0 24 24" xmlns="http://www.w3.org/2000/svg">
 <path id="path2" d="M0 0h24v24H0z" fill="none" stroke="none"/>
 <path id="path394" d="m13.858 6.446c2.1195 0.7701 3.5698 2.7933 3.5699 5.0964 0 2.9954-2.4302 5.4236-5.4279 5.4236-2.9978 0-5.4279-2.4282-5.4279-5.4236-2.9e-6 -2.3019 1.4489-4.2969 3.568-5.0964l0.0026-3.8045s-3.3897-0.40181-4.2026 0.10933c-0.81289 0.51114-0.52918 3.1529-1.1229 3.8929-1.1875 1.4801-1.385 3.3533-1.385 5.3613 0 4.7316 3.8359 8.5673 8.5678 8.5673 4.7319 0 8.5678-3.8357 8.5678-8.5673-1.3e-5 -2.0082-0.19761-3.8816-1.3854-5.3617-0.59388-0.74006-0.31029-3.3818-1.1233-3.8929-0.81302-0.51111-4.203-0.10912-4.203-0.10912z" fill="none" stroke-width="2"/>
 <line id="line415" x1="16.25" x2="16.25" y1="5" y2="5.01"/>
 <line id="line576" x1="7.75" x2="7.75" y1="5" y2="5.01"/>
</svg>
