<?xml version="1.0" encoding="UTF-8"?>
<svg id="svg6" class="icon icon-tabler icon-tabler-circle" width="24" height="24" fill="none" stroke="currentColor" stroke-linecap="round" stroke-linejoin="round" stroke-width="2" version="1.1" viewBox="0 0 24 24" xml:space="preserve" xmlns="http://www.w3.org/2000/svg"><path id="path2" d="M0 0h24v24H0z" fill="none" stroke="none"/><path id="path561" d="m12 20v-6.8305c0-0.6479 0.52159-1.1695 1.1695-1.1695h6.8305v-9h-12.958c-2.2395 0-4.0424 1.8029-4.0424 4.0424v12.958z"/><path id="path563" d="m9.6982 9.7093 2.6494 2.6267"/><path id="path766" d="m17.632 7.6732-0.66603 1.1536a0.34641 0.34641 150 0 1-0.3 0.17321h-1.332a0.34641 0.34641 30 0 1-0.3-0.17321l-0.66603-1.1536a0.34641 0.34641 90 0 1 0-0.34641l0.66603-1.1536a0.34641 0.34641 150 0 1 0.3-0.17321h1.332a0.34641 0.34641 30 0 1 0.3 0.17321l0.66603 1.1536a0.34641 0.34641 90 0 1 0 0.34641z" fill="currentColor" stroke="none"/><path id="path1444" d="m7.3268 17.632-1.1536-0.66603a0.34641 0.34641 60 0 1-0.17321-0.3v-1.332a0.34641 0.34641 120 0 1 0.17321-0.3l1.1536-0.66603a0.34641 0.34641 0 0 1 0.34641 0l1.1536 0.66603a0.34641 0.34641 60 0 1 0.17321 0.3v1.332a0.34641 0.34641 120 0 1-0.17321 0.3l-1.1536 0.66603a0.34641 0.34641 0 0 1-0.34641 0z" fill="currentColor" stroke="none"/></svg>
