<?xml version="1.0" encoding="UTF-8"?>
<svg id="svg6" class="icon icon-tabler icon-tabler-circle" width="24" height="24" fill="none" stroke="currentColor" stroke-linecap="round" stroke-linejoin="round" stroke-width="2" version="1.1" viewBox="0 0 24 24" xml:space="preserve" xmlns="http://www.w3.org/2000/svg"><path id="path2" d="M0 0h24v24H0z" fill="none" stroke="none"/><path id="path290" d="m7.9153 14.105v7.0421l0.84713 0.85256h6.777l0.84713-0.85256v-7.0421"/><path id="path388" d="m14.895 14.502-6.9802 3.5125"/><path id="path390" d="m16.386 17.662-7.9555 4.0032"/><path id="path332" d="m18.777 12.297 2.54e-4 1.7051-13.554 8.6e-5 -2.542e-4 -1.7052 1.2706-0.8526h11.013z"/><path id="path292" d="m7.3765 11.464a5.8402 5.8776 0 0 1 0.63894-7.8881 5.8402 5.8776 0 0 1 7.8633-0.096805 5.8402 5.8776 0 0 1 0.83048 7.87"/><circle id="path350" cx="12" cy="7.9195" r="3.0636"/></svg>
