<?xml version="1.0" encoding="UTF-8" standalone="no"?>
<svg
   class="icon icon-tabler icon-tabler-file"
   width="24"
   height="24"
   viewBox="0 0 24 24"
   stroke-width="2"
   stroke="currentColor"
   fill="none"
   stroke-linecap="round"
   stroke-linejoin="round"
   version="1.1"
   id="svg8"
   xmlns="http://www.w3.org/2000/svg"
   xmlns:svg="http://www.w3.org/2000/svg">
  <defs
     id="defs12" />
  <path
     stroke="none"
     d="M 0,0 H 24 V 24 H 0 Z"
     fill="none"
     id="path2" />
  <path
     d="m 15.5,3 v 4 a 1,1 0 0 0 1,1 h 4"
     id="path4" />
  <path
     d="M 6.5,13 V 5 c 0,-1.1045695 0.8954305,-2 2,-2 h 7 l 5,5 v 5.5 5.5"
     id="path6" />
  <path
     d="M 3,21.112696 V 16 h 1.7574894 a 1.437946,1.437946 0 0 1 0,2.875892 H 3"
     id="path4446" />
  <path
     d="m 8.8470986,21.11336 v -5.113 H 10.60343 a 1.4369982,1.4380313 0 0 1 0,2.876062 H 8.8470986"
     id="path306" />
  <line
     x1="10.443764"
     y1="18.876423"
     x2="12.040428"
     y2="21.113359"
     id="line308" />
  <line
     x1="14.5"
     y1="16"
     x2="18.032333"
     y2="16"
     id="line1408" />
  <line
     x1="16.266167"
     y1="16"
     x2="16.266167"
     y2="21.112999"
     id="line1410" />
</svg>
