<?xml version="1.0" encoding="UTF-8" standalone="no"?>
<svg
   class="icon icon-tabler icon-tabler-file"
   width="24"
   height="24"
   viewBox="0 0 24 24"
   stroke-width="2"
   stroke="currentColor"
   fill="none"
   stroke-linecap="round"
   stroke-linejoin="round"
   version="1.1"
   id="svg8"
   xmlns="http://www.w3.org/2000/svg"
   xmlns:svg="http://www.w3.org/2000/svg">
  <defs
     id="defs12" />
  <path
     stroke="none"
     d="M 0,0 H 24 V 24 H 0 Z"
     fill="none"
     id="path2" />
  <path
     d="m 15.5,3 v 4 a 1,1 0 0 0 1,1 h 4"
     id="path4" />
  <path
     d="M 6.5,13 V 5 c 0,-1.1045695 0.8954305,-2 2,-2 h 7 l 5,5 v 5.5 5.5"
     id="path6" />
  <path
     d="m 2.995229,21.108513 v -3.827789 a 1.263783,1.2759297 0 0 1 1.263783,-1.275929 h 0.6318915 a 1.263783,1.2759297 0 0 1 1.263783,1.275929 v 3.827789"
     id="path392" />
  <line
     x1="2.9952288"
     y1="18.875637"
     x2="6.1546865"
     y2="18.875637"
     id="line394" />
  <path
     d="m 8.5,20.474009 c 0.246067,0.295268 0.595805,0.639107 1.489512,0.639107 0.893707,0 1.489512,-0.573279 1.489512,-1.278213 0,-0.704934 -0.595805,-0.958659 -1.489512,-1.278212 -0.893707,-0.319553 -1.19161,-0.939486 -1.19161,-1.278212 0,-0.705573 0.595805,-1.278212 1.19161,-1.278212 0.595805,0 0.893707,0 1.489512,0.639106"
     id="path2476" />
  <path
     d="m 14,21.112998 v -5.113387 l 1.907702,4.474213 1.907702,-4.474213 v 5.113387"
     id="path3361" />
</svg>
