<?xml version="1.0" encoding="UTF-8" standalone="no"?>
<svg
   class="icon icon-tabler icon-tabler-file"
   width="24"
   height="24"
   viewBox="0 0 24 24"
   stroke-width="2"
   stroke="currentColor"
   fill="none"
   stroke-linecap="round"
   stroke-linejoin="round"
   version="1.1"
   id="svg8"
   xmlns="http://www.w3.org/2000/svg"
   xmlns:svg="http://www.w3.org/2000/svg">
  <defs
     id="defs12" />
  <path
     stroke="none"
     d="M0 0h24v24H0z"
     fill="none"
     id="path2" />
  <path
     d="M14 3v4a1 1 0 0 0 1 1h4"
     id="path4" />
  <path
     d="M17 21h-10a2 2 0 0 1 -2 -2v-14a2 2 0 0 1 2 -2h7l5 5v11a2 2 0 0 1 -2 2z"
     id="path6" />
  <path
     style="fill:none;stroke:#000000;stroke-width:2;stroke-linecap:butt;stroke-linejoin:miter;stroke-dasharray:none;stroke-opacity:1"
     d="m 11.392003,9.2329501 c -0.359689,0.019229 -0.483057,0.6135909 -0.528304,1.0811799 -0.04525,0.467591 0.190371,1.05105 0.417728,1.560342 0.227358,0.509292 0.566209,1.010322 0.946035,1.449765 0.379824,0.439442 0.876337,0.898972 1.314617,1.161042 0.43828,0.262071 0.774061,0.41729 1.228615,0.454588 0.454552,0.0373 1.337716,0.223119 1.400621,-0.270297 0.0629,-0.493415 -0.632712,-0.605919 -1.406764,-0.669594 -0.774051,-0.06367 -2.231431,0.40369 -3.126825,0.651165 -0.895394,0.247476 -1.6470071,0.456507 -2.2483651,0.780171 -0.6013583,0.323665 -1.1832251,0.674879 -1.3637623,1.044323 -0.1805371,0.369443 -0.16839,0.580809 0.00614,0.749456 0.1745274,0.168646 0.3721707,0.145937 0.7064539,-0.01843 0.3342832,-0.164369 0.6131803,-0.616268 0.9644626,-1.185614 0.3512819,-0.569346 0.6945209,-1.483438 1.0197499,-2.266795 0.325229,-0.783357 0.748044,-1.806935 0.927605,-2.432657 0.179562,-0.625719 0.320548,-0.907368 0.251867,-1.277756 -0.06868,-0.3703881 -0.150181,-0.8301102 -0.50987,-0.8108849 z"
     id="path524" />
</svg>
