<?xml version="1.0" encoding="UTF-8"?>
<svg id="svg8" class="icon icon-tabler icon-tabler-file" width="24" height="24" fill="none" stroke="currentColor" stroke-linecap="round" stroke-linejoin="round" stroke-width="2" version="1.1" viewBox="0 0 24 24" xmlns="http://www.w3.org/2000/svg">
 <path id="path2" d="m0 0h24v24h-24z" fill="none" stroke="none"/>
 <path id="path4" d="m15.5 3v4a1 1 0 0 0 1 1h4"/>
 <path id="path6" d="m6.5 13v-8c0-1.1046 0.89543-2 2-2h7l5 5v11"/>
 <path id="path5321" d="m2 16h1.9173a1.5977 1.5977 0 0 1 1.5977 1.5977v1.9173a1.5977 1.5977 0 0 1-1.5977 1.5977h-1.9173v-5.1127"/>
 <path id="path6922" d="m17.195 16h-3.1954v5.1127"/>
 <line id="line6924" x1="14.38" x2="16.937" y1="18.981" y2="18.981"/>
 <line id="line452" x1="8" x2="11.166" y1="16" y2="21.113" stroke-width="2"/>
 <line id="line454" x1="11.166" x2="8" y1="16" y2="21.113" stroke-width="2"/>
</svg>
