<?xml version="1.0" encoding="UTF-8"?>
<svg id="svg149" class="icon icon-tabler icon-tabler-file-export" width="24" height="24" fill="none" stroke="currentColor" stroke-linecap="round" stroke-linejoin="round" stroke-width="2" version="1.1" viewBox="0 0 24 24" xmlns="http://www.w3.org/2000/svg">
 <path id="path143" d="M0 0h24v24H0z" fill="none" stroke="none"/>
 <path id="path145" d="m14 3v4a1 1 0 0 0 1 1h4"/>
 <path id="path147" d="m11.5 21h-4.5c-1.1046 0-2-0.89543-2-2v-14c0-1.1046 0.89543-2 2-2h7l5 5v5m-4 6.5h7m-3-3 3 3-3 3"/>
 <path id="path10" d="m8 11.846 4 1.654v4.5l4-1.846v-4.308l-4-1.846z"/>
 <path id="path12" d="m8 12v4.2l4 1.8"/>
 <path id="path8" d="m12 13.5 4-1.5"/>
</svg>
