<?xml version="1.0" encoding="UTF-8"?>
<svg id="svg8" class="icon icon-tabler icon-tabler-file" width="24" height="24" fill="none" stroke="currentColor" stroke-linecap="round" stroke-linejoin="round" stroke-width="2" version="1.1" viewBox="0 0 24 24" xmlns="http://www.w3.org/2000/svg">
 <path id="path2" d="m0 0h24v24h-24z" fill="none" stroke="none"/>
 <path id="path4" d="m15.5 3v4a1 1 0 0 0 1 1h4"/>
 <path id="path6" d="m6.5 13v-8c0-1.1046 0.89543-2 2-2h7l5 5v11"/>
 <line id="line452" x1="3" x2="6.166" y1="16" y2="21.113" stroke-width="2"/>
 <line id="line454" x1="6.166" x2="3" y1="16" y2="21.113" stroke-width="2"/>
 <path id="path140" d="m9 16v5.113h3.1662" stroke-width="2"/>
 <path id="path2476" d="m14.5 20.474c0.24607 0.29527 0.5958 0.63911 1.4895 0.63911s1.4895-0.57328 1.4895-1.2782-0.5958-0.95866-1.4895-1.2782-1.1916-0.93949-1.1916-1.2782c0-0.70557 0.5958-1.2782 1.1916-1.2782s0.89371 0 1.4895 0.63911"/>
</svg>
