<?xml version="1.0" encoding="UTF-8"?>
<svg id="svg8" class="icon icon-tabler icon-tabler-copy" width="24" height="24" fill="none" stroke="currentColor" stroke-linecap="round" stroke-linejoin="round" stroke-width="2" version="1.1" viewBox="0 0 24 24" xml:space="preserve" xmlns="http://www.w3.org/2000/svg"><path id="path2" d="M0 0h24v24H0z" fill="none" stroke="none"/><circle id="circle1267" cx="18.463" cy="18.481" r="2.5"/><line id="line1269" x1="20.463" x2="22.963" y1="20.481" y2="22.981"/><path id="path6" d="m16 8v-2a2 2 0 0 0-2-2h-8a2 2 0 0 0-2 2v8a2 2 0 0 0 2 2h2"/><path id="rect4" d="m13.636 20h-3.6364c-1.108 0-2-0.892-2-2v-8c0-1.108 0.892-2 2-2h8c1.108 0 2 0.892 2 2v3.6364"/></svg>