<?xml version="1.0" encoding="UTF-8"?>
<svg class="icon icon-tabler icon-tabler-folder-cancel" width="24" height="24" fill="none" stroke="currentColor" stroke-linecap="round" stroke-linejoin="round" stroke-width="2" version="1.1" viewBox="0 0 24 24" xmlns="http://www.w3.org/2000/svg">
 <path d="M0 0h24v24H0z" fill="none" stroke="none"/>
 <path d="m8.5 19h-3.5c-1.1046 0-2-0.89543-2-2v-11c0-1.1046 0.89543-2 2-2h4l3 3h7c0.55228 0 1.0523 0.22386 1.4142 0.58579"/>
 <path d="m18.222 14.343 0.72786-1.4426c0.40031-0.79345 1.0357-1.7755 1.0896-1.8563 0.23204-0.34806 0.61288-0.54352 1.0526-0.54024 0.52467 0.0037 0.94095 0.28936 1.1695 0.80192 0.10696 0.23987 0.12677 0.64491 0.04378 0.89516-0.03154 0.09521-0.66196 1.1117-1.0785 1.9328l-0.75738 1.493"/>
 <path d="m20.469 15.626 0.10641 0.21749c0.16102 0.32909 0.21091 0.56827 0.20744 0.9946-0.0032 0.42126-0.0098 0.445-0.41916 1.5724-0.45755 1.26-0.77108 1.9692-1.2435 2.8131-0.50872 0.90856-0.67781 1.1236-0.9722 1.2368-0.2273 0.08731-0.40195 0.07847-0.73434-0.03719l1e-5 2.6e-5c-1.3127-0.45673-2.9677-1.4646-4.3431-2.6451-0.47088-0.40412-0.94479-0.89342-1.0115-1.0444-0.10091-0.22821-0.05868-0.51488 0.10471-0.71088 0.13971-0.16758 0.25448-0.22752 0.56141-0.2932 0.86151-0.18434 1.7629-0.64159 2.3984-1.2168 0.25279-0.22876 0.71581-0.71162 1.2152-1.2674 0.5146-0.57262 0.98941-0.826 1.6558-0.88362l0.22707-0.01963c0.83457 0.08221 1.6399 0.28276 2.2473 1.2836z"/>
 <path d="m16.036 15.579 4.3275 2.8323"/>
</svg>
