<?xml version="1.0" encoding="UTF-8"?>
<svg class="icon icon-tabler icon-tabler-key" width="24" height="24" fill="none" stroke="currentColor" stroke-linecap="round" stroke-linejoin="round" stroke-width="2" version="1.1" viewBox="0 0 24 24" xmlns="http://www.w3.org/2000/svg">
 <path d="M0 0h24v24H0z" fill="none" stroke="none"/>
 <path d="m20.157 7.445-3.602-3.602a2.877 2.877 0 0 0-4.069 0l-2.643 2.643a2.877 2.877 0 0 0 0 4.069l0.301 0.301-6.558 6.558a2 2 0 0 0-0.578 1.239l-8e-3 0.175v1.172a1 1 0 0 0 0.883 0.993l0.117 7e-3h1.172a2 2 0 0 0 1.284-0.467l0.13-0.119 0.414-0.414v-2h2v-2h2l2.144-2.144 0.301 0.301a2.877 2.877 0 0 0 4.069 0l2.643-2.643a2.877 2.877 0 0 0 0-4.069z"/>
 <path d="m15 9v-0.01"/>
</svg>
