<?xml version="1.0" encoding="UTF-8"?>
<svg class="icon icon-tabler icon-tabler-circle" width="24" height="24" fill="none" stroke="currentColor" stroke-linecap="round" stroke-linejoin="round" stroke-width="2" version="1.1" viewBox="0 0 24 24" xml:space="preserve" xmlns="http://www.w3.org/2000/svg"><path d="M0 0h24v24H0z" fill="none" stroke="none"/><path d="m3.3731 6.3734v11.253a3 3 45 0 0 3 3h11.253a3 3 135 0 0 3-3v-11.253a3 3 45 0 0-3-3h-11.253a3 3 135 0 0-3 3z"/><path d="m6.6012 7.6015v8.7969a1 1 45 0 0 1 1h8.7969a1 1 135 0 0 1-1v-8.7969a1 1 45 0 0-1-1h-8.7969a1 1 135 0 0-1 1z"/></svg>
