<?xml version="1.0" encoding="UTF-8" standalone="no"?>
<svg
   class="icon icon-tabler icon-tabler-number-5"
   width="24"
   height="24"
   viewBox="0 0 24 24"
   stroke-width="2"
   stroke="currentColor"
   fill="none"
   stroke-linecap="round"
   stroke-linejoin="round"
   version="1.1"
   id="svg3811"
   xmlns="http://www.w3.org/2000/svg"
   xmlns:svg="http://www.w3.org/2000/svg">
  <defs
     id="defs3815" />
  <path
     stroke="none"
     d="M 0,0 H 24 V 24 H 0 Z"
     fill="none"
     id="path4220" />
  <path
     d="m 19.5,10.499999 a 2,2 0 0 0 2,-2 V 4.4999991 a 2,2 0 1 0 -4,0 V 8.499999 a 2,2 0 0 0 2,2 z"
     id="path4224" />
  <path
     d="m 19.5,21.999999 a 2,2 0 0 0 2,-2 v -4 a 2,2 0 1 0 -4,0 v 4 a 2,2 0 0 0 2,2 z"
     id="path4253" />
  <path
     d="M 5.000124,22.000256 V 13.999859 L 2.5,16.499983"
     id="path4065" />
  <path
     d="M 5.000124,10.500256 V 2.4998586 L 2.5,4.9999826"
     id="path294" />
  <path
     d="M 14.000124,10.500256 V 2.4998586 L 11.5,4.9999826"
     id="path298" />
  <path
     d="m 11.5,16.000948 a 1.7777782,2.0000006 0 1 1 3.555556,0 c 0,0.549 -0.250666,1.0125 -0.515111,1.407499 L 11.5,22.000949 h 3.555556"
     id="path302"/>
  <path
     d="m 8,7.5 h 2"
     id="path451" />
  <path
     d="m 8,18.5 h 2"
     id="path602" />
</svg>
