<?xml version="1.0" encoding="UTF-8" standalone="no"?>
<svg
   class="icon icon-tabler icon-tabler-number-5"
   width="24"
   height="24"
   viewBox="0 0 24 24"
   stroke-width="2"
   stroke="currentColor"
   fill="none"
   stroke-linecap="round"
   stroke-linejoin="round"
   version="1.1"
   id="svg3811"
   xmlns="http://www.w3.org/2000/svg"
   xmlns:svg="http://www.w3.org/2000/svg">
  <defs
     id="defs3815" />
  <path
     stroke="none"
     d="M 0,0 H 24 V 24 H 0 Z"
     fill="none"
     id="path4220" />
  <path
     d="m 3.5000001,10.5 h 2 a 2,2 0 1 0 0,-4 h -2 v -4 h 4"
     id="path4222" />
  <path
     d="m 12,10.499999 a 2,2 0 0 0 2,-2 V 4.4999991 a 2,2 0 1 0 -4,0 V 8.499999 a 2,2 0 0 0 2,2 z"
     id="path4224" />
  <path
     d="m 18.5,10.499999 a 2,2 0 0 0 2,-2 V 4.4999991 a 2,2 0 1 0 -4,0 V 8.499999 a 2,2 0 0 0 2,2 z"
     id="path4226" />
  <path
     d="m 3.5000001,22 h 2 a 2,2 0 1 0 0,-4 h -2 v -4 h 4"
     id="path4251" />
  <path
     d="m 12,21.999999 a 2,2 0 0 0 2,-2 v -4 a 2,2 0 1 0 -4,0 v 4 a 2,2 0 0 0 2,2 z"
     id="path4253"/>
  <path
     d="M 19.000124,22.000256 V 13.999859 L 16.5,16.499983"
     id="path4065"/>
</svg>
