<?xml version="1.0" encoding="UTF-8" standalone="no"?>
<svg
   class="icon icon-tabler icon-tabler-file-export"
   width="24"
   height="24"
   viewBox="0 0 24 24"
   stroke-width="2"
   stroke="currentColor"
   fill="none"
   stroke-linecap="round"
   stroke-linejoin="round"
   version="1.1"
   id="svg8"
   xmlns="http://www.w3.org/2000/svg"
   xmlns:svg="http://www.w3.org/2000/svg">
  <defs
     id="defs12" />
  <path
     stroke="none"
     d="M0 0h24v24H0z"
     fill="none"
     id="path2" />
  <path
     d="m 6,11.496681 a 2,2 0 1 0 -2,-2"
     id="path393" />
  <path
     d="m 4,13.496681 a 2,2 0 1 0 2,-2"
     id="path395" />
  <path
     d="M 13.875,15 C 13.5,15.333333 13,15.5 12.5,15.5 c -1,0 -2,-0.666667 -2,-2 V 11 M 11.72151,7.6571699 C 11.960786,7.5559644 12.223858,7.5 12.5,7.5 c 1.104569,0 2,0.8954305 2,2 v 1"
     id="path551" />
  <circle
     cx="19.5"
     cy="15.5"
     r="0.5"
     id="circle851"
     style="stroke-width:1" />
  <path
     d="M 3,3 21,20.999999"
     id="path313" />
</svg>
