<?xml version="1.0" encoding="UTF-8"?>
<svg id="svg249" class="icon icon-tabler icon-tabler-eye-off" width="24" height="24" fill="none" stroke="currentColor" stroke-linecap="round" stroke-linejoin="round" stroke-width="2" version="1.1" viewBox="0 0 24 24" xmlns="http://www.w3.org/2000/svg">
 <path id="path241" d="M0 0h24v24H0z" fill="none" stroke="none"/>
 <path id="path598" d="m6.5 13.5h0.5v1m0 2.5v0.5h1m2.5 0h0.5v1m0 2.5v0.5h-1m-2.5 0h-1m-2.5 0h-1v-1m0-2.5v-1m0-2.5v-1h1" stroke-dashoffset="3.6" stroke-linejoin="round" stroke-width="2"/>
 <path id="path1348" d="m7 8 3-3-3-3"/>
 <path id="path1221" d="m3 10v-2c0-1.6569 1.3431-3 3-3h4"/>
 <path id="path2413" d="m17 3h0.5v1m0 2.5v0.5h1m2.5 0h0.5v1m0 2.5v0.5h-1m-2.5 0h-1m-2.5 0h-1v-1m0-2.5v-1m0-2.5v-1h1" stroke-dashoffset="3.6" stroke-linejoin="round" stroke-width="2"/>
</svg>
