<?xml version="1.0" encoding="UTF-8"?>
<svg id="svg26" class="icon icon-tabler icon-tabler-cpu-off" width="24" height="24" fill="none" stroke="currentColor" stroke-linecap="round" stroke-linejoin="round" stroke-width="2" version="1.1" viewBox="0 0 24 24" xmlns="http://www.w3.org/2000/svg">
 <path id="path2" d="M0 0h24v24H0z" fill="none" stroke="none"/>
 <path id="rect315" transform="rotate(-45)" d="m-6 9.9706c1.1055 0 1.8945 0.70711 3 0.70711s3-0.70711 3-0.70711 1.8945-0.70711 3-0.70711 2 0.2357 3 0.70711c0.50111 0.23623 1 0.446 1 1v12c0 0.554-0.446 1-1 1-1.1055 0-1.8945-0.70711-3-0.70711s-3 0.70711-3 0.70711-1.8945 0.70711-3 0.70711-2-0.2357-3-0.70711c-0.50111-0.23623-1-0.446-1-1v-12c0-0.554 0.446-1 1-1z"/>
 <path id="path1748" d="m18.192 5.7071c-0.39087 0.39087-2.8508 2.6008-3.3107 2.8107m-2.4145 2.4145c-0.30761 0.55761-0.51751 1.0175-0.51751 1.0175s-0.2099 0.4599-0.51751 1.0175m-2.3175 2.5675c-0.42756 0.26089-2.8875 2.4708-3.4077 2.6577"/>
</svg>
