<?xml version="1.0" encoding="UTF-8"?>
<svg class="icon icon-tabler icon-tabler-cpu-off" width="24" height="24" fill="none" stroke="currentColor" stroke-linecap="round" stroke-linejoin="round" stroke-width="2" version="1.1" viewBox="0 0 24 24" xmlns="http://www.w3.org/2000/svg">
 <path d="M0 0h24v24H0z" fill="none" stroke="none"/>
 <path d="m18.571 4.4289-4.0496 4.0496m-2.25 2.25-1.5429 1.5429m-2.25 2.25-4.0496 4.0496"/>
 <path d="m10.793 20.693-8.4853-8.4853c-0.39174-0.39174-0.39174-1.0225 0-1.4142l8.4853-8.4853c0.39174-0.39174 1.0225-0.39174 1.4142 0l8.4853 8.4853"/>
 <path d="m20.532 13.744 1.2577 4.7917-3.534 3.534-4.7917-1.2577-1.2577-4.7917 3.534-3.534z"/>
 <path d="m19.219 17.278a2.2213 2.1944 0 0 1-2.2213 2.1944 2.2213 2.1944 0 0 1-2.2213-2.1944 2.2213 2.1944 0 0 1 2.2213-2.1944 2.2213 2.1944 0 0 1 2.2213 2.1944z"/>
</svg>
