<?xml version="1.0" encoding="UTF-8"?>
<svg id="svg10" class="icon icon-tabler icon-tabler-printer" width="24" height="24" fill="none" stroke="currentColor" stroke-linecap="round" stroke-linejoin="round" stroke-width="2" version="1.1" viewBox="0 0 24 24" xmlns="http://www.w3.org/2000/svg">
 <path id="path2" d="M0 0h24v24H0z" fill="none" stroke="none"/>
 <path id="path4" d="m21 13v-2c0-1.1046-0.89543-2-2-2h-14c-1.1046 0-2 0.89543-2 2v4c0 1.1046 0.89543 2 2 2h2"/>
 <path id="path6" d="m17 9v-4a2 2 0 0 0-2-2h-6a2 2 0 0 0-2 2v4"/>
 <path id="rect8" d="m11 21h-2c-1.108 0-2-0.892-2-2v-4c0-1.108 0.892-2 2-2h6c1.108 0 2 0.892 2 2"/>
 <path id="path367" d="m15.778 17.667h6.2224l-1.7778-1.6667" stroke-width="2"/>
 <path id="path369" d="m20.222 20.333h-6.2224l1.7778 1.6667" stroke-width="2"/>
</svg>
