<?xml version="1.0" encoding="UTF-8"?>
<svg class="icon icon-tabler icon-tabler-report-analytics" width="24" height="24" fill="none" stroke="currentColor" stroke-linecap="round" stroke-linejoin="round" stroke-width="2" version="1.1" viewBox="0 0 24 24" xmlns="http://www.w3.org/2000/svg">
 <path d="M0 0h24v24H0z" fill="none" stroke="none"/>
 <path d="m9 5h-2a2 2 0 0 0-2 2v12a2 2 0 0 0 2 2h10a2 2 0 0 0 2-2v-12a2 2 0 0 0-2-2h-2"/>
 <path d="m9 3m0 2a2 2 0 0 1 2-2h2a2 2 0 0 1 2 2 2 2 0 0 1-2 2h-2a2 2 0 0 1-2-2z"/>
 <path d="m8 11h8v7h-8z"/>
 <path d="m8 15h8"/>
 <path d="m11 11v7"/>
</svg>
