<?xml version="1.0" encoding="UTF-8"?>
<svg id="svg3811" class="icon icon-tabler icon-tabler-number-5" width="24" height="24" fill="none" stroke="currentColor" stroke-linecap="round" stroke-linejoin="round" stroke-width="2" version="1.1" viewBox="0 0 24 24" xmlns="http://www.w3.org/2000/svg">
 <path id="path4220" d="m0 0h24v24h-24z" fill="none" stroke="none"/>
 <path id="path4224" d="m10.972 10.25a2 2 0 0 0 2-2v-4a2 2 0 1 0-4 0v4a2 2 0 0 0 2 2z"/>
 <path id="path4253" d="m10.972 21.75a2 2 0 0 0 2-2v-4a2 2 0 1 0-4 0v4a2 2 0 0 0 2 2z"/>
 <path id="path298" d="m20.972 21.75v-8.0004l-2.5001 2.5001"/>
 <path id="path302" d="m18.472 4.2508a1.7778 2 0 1 1 3.5556 0c0 0.549-0.25067 1.0125-0.51511 1.4075l-3.0404 4.5925h3.5556"/>
 <line id="line298" x1="15.472" x2="15.482" y1="10.25" y2="10.25"/>
 <line id="line451" x1="15.472" x2="15.482" y1="21.75" y2="21.75"/>
 <line id="line461" x1="3.9722" x2="3.9722" y1="4.2499" y2="8.2499"/>
 <line id="line463" x1="1.9722" x2="5.9722" y1="6.2499" y2="6.2499"/>
 <line id="line465" x1="1.9722" x2="5.9722" y1="17.75" y2="17.75"/>
</svg>
