<?xml version="1.0" encoding="UTF-8"?>
<svg id="svg12" class="icon icon-tabler icon-tabler-briefcase" width="24" height="24" fill="none" stroke="currentColor" stroke-linecap="round" stroke-linejoin="round" stroke-width="2" version="1.1" viewBox="0 0 24 24" xmlns="http://www.w3.org/2000/svg">
 <path id="path2" d="M0 0h24v24H0z" fill="none" stroke="none"/>
 <path id="rect4" d="m5 19c-1.108 0-2-0.892-2-2v-9c0-1.108 0.892-2 2-2h14c1.108 0 2 0.892 2 2v7"/>
 <path id="path6" d="m8 6v-2a2 2 0 0 1 2-2h4a2 2 0 0 1 2 2v2"/>
 <path id="path395" d="m3 9.5h18"/>
 <path id="path399" d="m10.906 17.446 1.9171-0.50561-0.51369-1.8869-2.8359-1.6116a3.9695 3.907 0 0 1 6.4821 3.6836l4.8616 2.7627a1.4034 1.3813 0 0 1-1.4034 2.3926l-4.8616-2.7627a3.9695 3.907 0 0 1-6.4821-3.6836l2.8359 1.6116"/>
</svg>
