<?xml version="1.0" encoding="UTF-8"?>
<svg class="icon icon-tabler icon-tabler-trolley" width="24" height="24" fill="none" stroke="currentColor" stroke-linecap="round" stroke-linejoin="round" stroke-width="2" version="1.1" viewBox="0 0 24 24" xmlns="http://www.w3.org/2000/svg">
 <path d="M0 0h24v24H0z" fill="none" stroke="none"/>
 <path d="m13.505 19m2 0a2 2 0 1 1-4 0 2 2 0 1 1 4 0"/>
 <path d="m18.505 16-3 2"/>
 <path d="m12.505 17-8-12"/>
 <path d="m7.5046 10-2 1"/>
 <path d="m14.913 4.695-3.306 2.104a1.3 1.3 0 0 0-0.396 1.8l3.094 4.811a1.3 1.3 0 0 0 1.792 0.394l3.306-2.104a1.3 1.3 0 0 0 0.396-1.8l-3.094-4.81a1.3 1.3 0 0 0-1.792-0.394z"/>
</svg>
